<?xml version="1.0" standalone="no"?><!DOCTYPE svg PUBLIC "-//W3C//DTD SVG 1.1//EN" "http://www.w3.org/Graphics/SVG/1.1/DTD/svg11.dtd"><svg t="1576550263269" class="icon" viewBox="0 0 1024 1024" version="1.1" xmlns="http://www.w3.org/2000/svg" p-id="30564" xmlns:xlink="http://www.w3.org/1999/xlink" width="32" height="32"><defs><style type="text/css"></style></defs><path d="M297.792 482.624a32.832 32.832 0 0 0-16.768-42.304A96.064 96.064 0 0 1 224 352.64c0-44.544 30.208-86.784 73.472-97.216a32.064 32.064 0 0 0-14.976-62.336C210.368 210.496 160 278.336 160 352.576c0 40.512 15.424 78.528 41.6 107.392a253.248 253.248 0 0 0-137.664 225.92v49.536a32 32 0 1 0 64.064 0v-49.536c0-88.512 59.52-163.2 144.896-184.704a31.808 31.808 0 0 0 24.896-18.56z" fill="#d38e0c" p-id="30565"></path><path d="M630.464 471.488a191.616 191.616 0 0 0 73.728-151.04c0-105.92-86.016-192.064-191.936-192.064S320.192 214.528 320.192 320.448c0 61.312 28.992 115.84 73.792 151.04-118.016 47.104-201.792 194.496-201.792 329.216v94.848h640.192v-94.848c-0.064-134.656-83.84-281.984-201.92-329.216z m-246.4-150.976a128.128 128.128 0 0 1 256.128 0 128.128 128.128 0 0 1-256.128 0z m384.192 512.192H256v-32c0-141.184 114.88-288.192 256.192-288.192 141.184 0 256.128 146.944 256.128 288.192v32h-0.064z" fill="#d38e0c" p-id="30566"></path><path d="M822.528 459.968a160.128 160.128 0 0 0 41.536-107.392c0-72.32-48.64-139.712-118.4-158.464A32.064 32.064 0 0 0 728.96 256c41.856 11.2 71.04 53.184 71.04 96.64 0 37.952-22.336 72.256-57.024 87.68a30.464 30.464 0 0 0-10.176 7.104 34.176 34.176 0 0 0-7.488 12.288l-1.088 5.952a38.016 38.016 0 0 0 1.856 17.088 31.68 31.68 0 0 0 24.896 18.56A189.568 189.568 0 0 1 896 685.952v49.472a32 32 0 1 0 64.064 0v-49.472a253.056 253.056 0 0 0-137.536-225.984z" fill="#d38e0c" p-id="30567"></path></svg>