<?xml version="1.0" standalone="no"?><!DOCTYPE svg PUBLIC "-//W3C//DTD SVG 1.1//EN" "http://www.w3.org/Graphics/SVG/1.1/DTD/svg11.dtd"><svg t="1576573986501" class="icon" viewBox="0 0 1024 1024" version="1.1" xmlns="http://www.w3.org/2000/svg" p-id="39674" xmlns:xlink="http://www.w3.org/1999/xlink" width="64" height="64"><defs><style type="text/css"></style></defs><path d="M726.4 387.2c-28.8-6.4-60.8-3.2-86.4 12.8l-288 166.4c-12.8 6.4-25.6 9.6-38.4 6.4s-22.4-12.8-32-25.6c-12.8-22.4-6.4-54.4 19.2-67.2l291.2-166.4c54.4-32 73.6-99.2 41.6-153.6l-6.4-12.8-54.4 32 3.2 12.8c12.8 22.4 6.4 54.4-19.2 67.2l-291.2 166.4c-54.4 32-73.6 99.2-41.6 156.8 16 25.6 38.4 44.8 67.2 51.2 28.8 6.4 60.8 3.2 86.4-12.8l291.2-166.4c12.8-6.4 25.6-9.6 38.4-6.4 12.8 3.2 22.4 12.8 32 25.6 12.8 22.4 6.4 54.4-19.2 67.2l-291.2 166.4c-54.4 32-73.6 99.2-41.6 153.6l9.6 16 54.4-32-3.2-16c-12.8-22.4-6.4-54.4 19.2-67.2l291.2-166.4c54.4-32 73.6-99.2 41.6-156.8-19.2-25.6-44.8-41.6-73.6-51.2z" fill="#8a8a8a" p-id="39675"></path></svg>