<?xml version="1.0" standalone="no"?><!DOCTYPE svg PUBLIC "-//W3C//DTD SVG 1.1//EN" "http://www.w3.org/Graphics/SVG/1.1/DTD/svg11.dtd"><svg t="1576548171397" class="icon" viewBox="0 0 1024 1024" version="1.1" xmlns="http://www.w3.org/2000/svg" p-id="7540" xmlns:xlink="http://www.w3.org/1999/xlink" width="64" height="64"><defs><style type="text/css"></style></defs><path d="M512.000512 432.60738c-42.807925 0-77.817242 35.009317-77.817242 77.833615 0 42.757783 35.009317 77.768123 77.817242 77.768123 42.824298 0 77.882734-35.009317 77.882734-77.768123C589.884269 467.616696 554.82481 432.60738 512.000512 432.60738M784.475981 160.149307l-544.885447 0c-42.816112 0-77.882734 35.00113-77.882734 77.758914l0 544.992894c0 42.824298 35.067645 77.825429 77.882734 77.825429L784.475981 860.726543c42.757783 0 77.817242-35.00113 77.817242-77.825429l0-544.992894C862.293223 195.150437 827.233764 160.149307 784.475981 160.149307M714.399019 510.442018l0 27.252663 58.387747 46.690345c3.932562 3.825115 7.814982 11.689215 3.932562 15.563448l-54.49714 93.388877c-3.88242 7.823168-11.74652 7.823168-15.571635 7.823168l-66.202728-27.26085c-15.497957 11.689215-31.117687 19.437682-46.739464 27.26085l-11.6227 73.943009c0 7.798609-7.76484 11.6227-11.705588 11.6227l-108.944139 0c-7.814982 0-11.630887-3.825115-11.630887-11.6227l-15.620754-73.943009c-15.62894-7.823168-31.126897-15.571635-46.699555-27.26085l-66.186355 27.26085c-7.76484 3.808742-11.639073 0-15.571635-7.823168l-54.446998-93.388877c-3.932562-7.748467 0-11.738334 3.874233-15.563448l58.37956-46.690345 0-27.252663 0-27.26085-58.37956-46.739464c-3.874233-3.833301-7.806795-11.640096-3.874233-15.51433l54.446998-93.388877c3.932562-7.872287 11.689215-7.872287 15.571635-7.872287l66.186355 27.26085c15.572658-7.757677 31.069592-19.388563 46.699555-27.26085l11.680005-73.892867c0-7.8641 7.756653-11.681029 11.689215-11.681029l109.00963 0c7.757677 0 11.640096 3.815905 11.640096 11.681029l11.681029 73.892867c15.563448 7.872287 31.126897 15.621777 46.698532 27.26085l66.136214-27.26085c7.756653-3.815905 11.681029 0 15.621777 7.872287l54.446998 93.388877c3.932562 7.757677 0 11.681029-3.940748 15.51433l-58.371374 46.739464C714.399019 490.995126 714.399019 502.676155 714.399019 510.442018" p-id="7541" fill="#1296db"></path></svg>